<svg width="1344" height="1728" viewBox="0 0 1344 1728" fill="none" xmlns="http://www.w3.org/2000/svg">
<rect width="1344" height="1728" fill="#183626"/>
<path d="M189.013 283.02C190.186 280.967 192.166 279.573 194.953 278.84C197.886 277.96 201.626 277.52 206.173 277.52C210.866 277.52 214.606 278.033 217.392 279.06C220.179 279.94 222.159 281.48 223.333 283.68C224.506 285.733 225.166 287.64 225.313 289.4C225.606 291.16 225.753 293.727 225.753 297.1V419.42C225.753 425.14 225.019 429.393 223.553 432.18C222.233 434.82 220.106 436.58 217.173 437.46C214.386 438.34 210.866 438.78 206.613 438.78C202.359 438.78 198.986 438.413 196.493 437.68C193.999 436.947 192.093 436.067 190.773 435.04C189.453 434.013 188.499 432.547 187.913 430.64C187.033 428.147 186.593 424.333 186.593 419.2V392.36H126.973C116.706 392.36 110.619 389.573 108.713 384C107.979 381.653 107.613 378.5 107.613 374.54C107.613 370.58 107.833 367.647 108.273 365.74L126.533 292.04C127.413 288.667 128.146 286.1 128.733 284.34C129.466 282.58 130.786 280.893 132.693 279.28C134.746 277.667 137.313 276.86 140.393 276.86C143.473 276.86 146.846 277.373 150.513 278.4C160.779 281.187 165.913 285.88 165.913 292.48C165.913 294.827 165.399 297.907 164.373 301.72C164.226 302.013 164.153 302.233 164.153 302.38L150.733 356.06H186.593V296C186.593 292.627 186.666 290.133 186.813 288.52C187.106 286.907 187.839 285.073 189.013 283.02ZM256.728 296.44C260.981 290.427 266.921 285.44 274.548 281.48C282.321 277.373 291.268 275.32 301.388 275.32C311.508 275.32 320.308 277.3 327.788 281.26C335.414 285.22 341.354 290.133 345.608 296C350.008 301.867 353.528 308.76 356.168 316.68C360.568 329.88 362.768 343.887 362.768 358.7C362.768 385.247 357.048 406.293 345.608 421.84C341.354 427.707 335.414 432.547 327.788 436.36C320.308 440.173 311.581 442.08 301.608 442.08C291.634 442.08 282.761 440.173 274.988 436.36C267.361 432.4 261.348 427.56 256.948 421.84C252.694 416.12 249.174 409.3 246.388 401.38C242.134 388.767 240.008 374.467 240.008 358.48C240.008 343.813 241.694 331.273 245.068 320.86C248.588 310.447 252.474 302.307 256.728 296.44ZM301.168 402.92C316.274 402.92 323.828 388.547 323.828 359.8V358.48C323.828 329 316.348 314.26 301.388 314.26C286.428 314.26 278.948 329.073 278.948 358.7C278.948 388.18 286.354 402.92 301.168 402.92ZM416.315 283.24C420.129 279.427 424.235 277.52 428.635 277.52C433.182 277.52 436.702 277.887 439.195 278.62C441.689 279.353 443.595 280.233 444.915 281.26C446.235 282.14 447.262 283.68 447.995 285.88C448.729 288.373 449.095 292.26 449.095 297.54V420.08C449.095 423.453 448.949 426.02 448.655 427.78C448.509 429.393 447.849 431.3 446.675 433.5C444.622 437.46 438.902 439.44 429.515 439.44C420.422 439.44 414.775 437.533 412.575 433.72C411.402 431.52 410.669 429.54 410.375 427.78C410.229 425.873 410.155 423.16 410.155 419.64V341.1L407.295 343.74C401.282 348.287 396.149 350.56 391.895 350.56C387.642 350.56 383.169 347.993 378.475 342.86C373.929 337.727 371.655 333.18 371.655 329.22C371.655 325.26 374.295 320.933 379.575 316.24L415.655 283.68L416.315 283.24ZM561.33 400.06H629.09C632.463 400.06 634.957 400.207 636.57 400.5C638.33 400.647 640.31 401.307 642.51 402.48C646.47 404.533 648.45 410.253 648.45 419.64C648.45 429.907 645.737 435.92 640.31 437.68C637.817 438.56 634.003 439 628.87 439H541.75C531.483 439 525.47 436.213 523.71 430.64C522.83 428.293 522.39 424.553 522.39 419.42V297.1C522.39 289.62 523.783 284.56 526.57 281.92C529.357 279.133 534.637 277.74 542.41 277.74H629.09C632.463 277.74 634.957 277.887 636.57 278.18C638.33 278.327 640.31 278.987 642.51 280.16C646.47 282.213 648.45 287.933 648.45 297.32C648.45 307.587 645.737 313.6 640.31 315.36C637.817 316.24 634.003 316.68 628.87 316.68H561.33V338.9H604.89C608.263 338.9 610.757 339.047 612.37 339.34C614.13 339.487 616.11 340.147 618.31 341.32C622.27 343.373 624.25 349.093 624.25 358.48C624.25 368.747 621.463 374.76 615.89 376.52C613.397 377.4 609.583 377.84 604.45 377.84H561.33V400.06ZM786.103 411.72C788.303 417 789.403 420.813 789.403 423.16C789.403 428.733 784.856 433.427 775.763 437.24C771.069 439.293 767.256 440.32 764.323 440.32C761.536 440.32 759.189 439.66 757.283 438.34C755.523 436.873 754.203 435.407 753.323 433.94C751.856 431.153 746.136 417.88 736.163 394.12L729.343 394.56H701.623V419.42C701.623 422.793 701.476 425.36 701.183 427.12C701.036 428.733 700.376 430.64 699.203 432.84C697.149 436.8 691.429 438.78 682.043 438.78C671.776 438.78 665.763 436.067 664.003 430.64C663.123 428.147 662.683 424.333 662.683 419.2V297.1C662.683 293.727 662.756 291.233 662.903 289.62C663.196 287.86 663.929 285.88 665.103 283.68C667.156 279.72 672.876 277.74 682.263 277.74H729.783C742.689 277.74 755.229 282.433 767.403 291.82C773.269 296.367 778.109 302.527 781.923 310.3C785.736 318.073 787.643 326.727 787.643 336.26C787.643 352.833 782.143 366.473 771.143 377.18C774.369 384.953 779.356 396.467 786.103 411.72ZM701.623 355.62H729.783C734.036 355.62 738.289 354.007 742.543 350.78C746.796 347.553 748.923 342.713 748.923 336.26C748.923 329.807 746.796 324.967 742.543 321.74C738.289 318.367 733.889 316.68 729.343 316.68H701.623V355.62ZM924.892 411.72C927.092 417 928.192 420.813 928.192 423.16C928.192 428.733 923.645 433.427 914.552 437.24C909.859 439.293 906.045 440.32 903.112 440.32C900.325 440.32 897.979 439.66 896.072 438.34C894.312 436.873 892.992 435.407 892.112 433.94C890.645 431.153 884.925 417.88 874.952 394.12L868.132 394.56H840.412V419.42C840.412 422.793 840.265 425.36 839.972 427.12C839.825 428.733 839.165 430.64 837.992 432.84C835.939 436.8 830.219 438.78 820.832 438.78C810.565 438.78 804.552 436.067 802.792 430.64C801.912 428.147 801.472 424.333 801.472 419.2V297.1C801.472 293.727 801.545 291.233 801.692 289.62C801.985 287.86 802.719 285.88 803.892 283.68C805.945 279.72 811.665 277.74 821.052 277.74H868.572C881.479 277.74 894.019 282.433 906.192 291.82C912.059 296.367 916.899 302.527 920.712 310.3C924.525 318.073 926.432 326.727 926.432 336.26C926.432 352.833 920.932 366.473 909.932 377.18C913.159 384.953 918.145 396.467 924.892 411.72ZM840.412 355.62H868.572C872.825 355.62 877.079 354.007 881.332 350.78C885.585 347.553 887.712 342.713 887.712 336.26C887.712 329.807 885.585 324.967 881.332 321.74C877.079 318.367 872.679 316.68 868.132 316.68H840.412V355.62ZM1013.79 275.76C1035.5 275.76 1054.35 283.607 1070.33 299.3C1086.32 314.993 1094.31 334.5 1094.31 357.82C1094.31 380.993 1086.69 400.793 1071.43 417.22C1056.18 433.5 1037.41 441.64 1015.11 441.64C992.819 441.64 973.826 433.573 958.133 417.44C942.586 401.307 934.813 382.093 934.813 359.8C934.813 347.627 937.013 336.26 941.413 325.7C945.813 314.993 951.679 306.047 959.013 298.86C966.346 291.673 974.779 286.027 984.312 281.92C993.846 277.813 1003.67 275.76 1013.79 275.76ZM973.753 358.7C973.753 371.753 977.933 382.387 986.293 390.6C994.799 398.667 1004.26 402.7 1014.67 402.7C1025.09 402.7 1034.47 398.74 1042.83 390.82C1051.19 382.9 1055.37 372.267 1055.37 358.92C1055.37 345.573 1051.12 334.867 1042.61 326.8C1034.25 318.733 1024.87 314.7 1014.45 314.7C1004.04 314.7 994.653 318.807 986.293 327.02C977.933 335.087 973.753 345.647 973.753 358.7ZM1232.12 411.72C1234.32 417 1235.42 420.813 1235.42 423.16C1235.42 428.733 1230.87 433.427 1221.78 437.24C1217.09 439.293 1213.27 440.32 1210.34 440.32C1207.55 440.32 1205.21 439.66 1203.3 438.34C1201.54 436.873 1200.22 435.407 1199.34 433.94C1197.87 431.153 1192.15 417.88 1182.18 394.12L1175.36 394.56H1147.64V419.42C1147.64 422.793 1147.49 425.36 1147.2 427.12C1147.05 428.733 1146.39 430.64 1145.22 432.84C1143.17 436.8 1137.45 438.78 1128.06 438.78C1117.79 438.78 1111.78 436.067 1110.02 430.64C1109.14 428.147 1108.7 424.333 1108.7 419.2V297.1C1108.7 293.727 1108.77 291.233 1108.92 289.62C1109.21 287.86 1109.95 285.88 1111.12 283.68C1113.17 279.72 1118.89 277.74 1128.28 277.74H1175.8C1188.71 277.74 1201.25 282.433 1213.42 291.82C1219.29 296.367 1224.13 302.527 1227.94 310.3C1231.75 318.073 1233.66 326.727 1233.66 336.26C1233.66 352.833 1228.16 366.473 1217.16 377.18C1220.39 384.953 1225.37 396.467 1232.12 411.72ZM1147.64 355.62H1175.8C1180.05 355.62 1184.31 354.007 1188.56 350.78C1192.81 347.553 1194.94 342.713 1194.94 336.26C1194.94 329.807 1192.81 324.967 1188.56 321.74C1184.31 318.367 1179.91 316.68 1175.36 316.68H1147.64V355.62ZM166.776 549.02C167.95 546.967 169.93 545.573 172.716 544.84C175.65 543.96 179.39 543.52 183.936 543.52C188.63 543.52 192.37 544.033 195.156 545.06C197.943 545.94 199.923 547.48 201.096 549.68C202.27 551.733 202.93 553.64 203.076 555.4C203.37 557.16 203.516 559.727 203.516 563.1V685.42C203.516 691.14 202.783 695.393 201.316 698.18C199.996 700.82 197.87 702.58 194.936 703.46C192.15 704.34 188.63 704.78 184.376 704.78C180.123 704.78 176.75 704.413 174.256 703.68C171.763 702.947 169.856 702.067 168.536 701.04C167.216 700.013 166.263 698.547 165.676 696.64C164.796 694.147 164.356 690.333 164.356 685.2V658.36H104.736C94.4695 658.36 88.3828 655.573 86.4762 650C85.7428 647.653 85.3762 644.5 85.3762 640.54C85.3762 636.58 85.5962 633.647 86.0362 631.74L104.296 558.04C105.176 554.667 105.91 552.1 106.496 550.34C107.23 548.58 108.55 546.893 110.456 545.28C112.51 543.667 115.076 542.86 118.156 542.86C121.236 542.86 124.61 543.373 128.276 544.4C138.543 547.187 143.676 551.88 143.676 558.48C143.676 560.827 143.163 563.907 142.136 567.72C141.99 568.013 141.916 568.233 141.916 568.38L128.496 622.06H164.356V562C164.356 558.627 164.43 556.133 164.576 554.52C164.87 552.907 165.603 551.073 166.776 549.02ZM234.491 562.44C238.745 556.427 244.685 551.44 252.311 547.48C260.085 543.373 269.031 541.32 279.151 541.32C289.271 541.32 298.071 543.3 305.551 547.26C313.178 551.22 319.118 556.133 323.371 562C327.771 567.867 331.291 574.76 333.931 582.68C338.331 595.88 340.531 609.887 340.531 624.7C340.531 651.247 334.811 672.293 323.371 687.84C319.118 693.707 313.178 698.547 305.551 702.36C298.071 706.173 289.345 708.08 279.371 708.08C269.398 708.08 260.525 706.173 252.751 702.36C245.125 698.4 239.111 693.56 234.711 687.84C230.458 682.12 226.938 675.3 224.151 667.38C219.898 654.767 217.771 640.467 217.771 624.48C217.771 609.813 219.458 597.273 222.831 586.86C226.351 576.447 230.238 568.307 234.491 562.44ZM278.931 668.92C294.038 668.92 301.591 654.547 301.591 625.8V624.48C301.591 595 294.111 580.26 279.151 580.26C264.191 580.26 256.711 595.073 256.711 624.7C256.711 654.18 264.118 668.92 278.931 668.92ZM457.439 666.28C463.452 666.28 467.706 667.013 470.199 668.48C472.839 669.8 474.599 671.927 475.479 674.86C476.359 677.647 476.799 681.387 476.799 686.08C476.799 690.627 476.286 694.293 475.259 697.08C474.379 699.867 472.839 701.773 470.639 702.8C467.412 704.56 462.866 705.44 456.999 705.44H370.979C365.699 705.44 361.152 703.46 357.339 699.5C353.526 695.54 351.619 690.92 351.619 685.64C351.619 677.72 354.332 670.46 359.759 663.86C365.332 657.113 372.006 651.393 379.779 646.7C387.552 641.86 395.326 637.167 403.099 632.62C410.872 627.927 417.472 622.647 422.899 616.78C428.472 610.913 431.259 604.68 431.259 598.08C431.259 596.76 430.746 594.927 429.719 592.58C428.692 590.087 427.519 588.107 426.199 586.64C425.026 585.027 423.119 583.56 420.479 582.24C417.839 580.92 414.172 580.26 409.479 580.26C404.786 580.26 400.679 582.02 397.159 585.54C393.786 588.913 391.879 592.287 391.439 595.66L390.559 600.72V602.04C390.559 605.267 390.412 607.687 390.119 609.3C389.972 610.913 389.312 612.747 388.139 614.8C385.939 618.32 380.219 620.08 370.979 620.08C360.712 620.08 354.626 617.293 352.719 611.72C351.986 609.373 351.619 605.633 351.619 600.5C351.619 585.247 357.046 571.607 367.899 559.58C378.899 547.407 393.199 541.32 410.799 541.32C428.546 541.32 442.919 547.48 453.919 559.8C464.919 571.973 470.419 585.907 470.419 601.6C470.419 609.96 468.586 617.88 464.919 625.36C461.252 632.84 456.852 638.853 451.719 643.4C440.866 653.08 431.186 659.607 422.679 662.98L417.179 665.18V666.28H457.439ZM583.566 666.06H651.326C654.7 666.06 657.193 666.207 658.806 666.5C660.566 666.647 662.546 667.307 664.746 668.48C668.706 670.533 670.686 676.253 670.686 685.64C670.686 695.907 667.973 701.92 662.546 703.68C660.053 704.56 656.24 705 651.106 705H563.986C553.72 705 547.706 702.213 545.946 696.64C545.066 694.293 544.626 690.553 544.626 685.42V563.1C544.626 555.62 546.02 550.56 548.806 547.92C551.593 545.133 556.873 543.74 564.646 543.74H651.326C654.7 543.74 657.193 543.887 658.806 544.18C660.566 544.327 662.546 544.987 664.746 546.16C668.706 548.213 670.686 553.933 670.686 563.32C670.686 573.587 667.973 579.6 662.546 581.36C660.053 582.24 656.24 582.68 651.106 582.68H583.566V604.9H627.126C630.5 604.9 632.993 605.047 634.606 605.34C636.366 605.487 638.346 606.147 640.546 607.32C644.506 609.373 646.486 615.093 646.486 624.48C646.486 634.747 643.7 640.76 638.126 642.52C635.633 643.4 631.82 643.84 626.686 643.84H583.566V666.06ZM808.339 677.72C810.539 683 811.639 686.813 811.639 689.16C811.639 694.733 807.092 699.427 797.999 703.24C793.306 705.293 789.492 706.32 786.559 706.32C783.772 706.32 781.426 705.66 779.519 704.34C777.759 702.873 776.439 701.407 775.559 699.94C774.092 697.153 768.372 683.88 758.399 660.12L751.579 660.56H723.859V685.42C723.859 688.793 723.712 691.36 723.419 693.12C723.272 694.733 722.612 696.64 721.439 698.84C719.386 702.8 713.666 704.78 704.279 704.78C694.012 704.78 687.999 702.067 686.239 696.64C685.359 694.147 684.919 690.333 684.919 685.2V563.1C684.919 559.727 684.992 557.233 685.139 555.62C685.432 553.86 686.166 551.88 687.339 549.68C689.392 545.72 695.112 543.74 704.499 543.74H752.019C764.926 543.74 777.466 548.433 789.639 557.82C795.506 562.367 800.346 568.527 804.159 576.3C807.972 584.073 809.879 592.727 809.879 602.26C809.879 618.833 804.379 632.473 793.379 643.18C796.606 650.953 801.592 662.467 808.339 677.72ZM723.859 621.62H752.019C756.272 621.62 760.526 620.007 764.779 616.78C769.032 613.553 771.159 608.713 771.159 602.26C771.159 595.807 769.032 590.967 764.779 587.74C760.526 584.367 756.126 582.68 751.579 582.68H723.859V621.62ZM947.128 677.72C949.328 683 950.428 686.813 950.428 689.16C950.428 694.733 945.882 699.427 936.788 703.24C932.095 705.293 928.282 706.32 925.348 706.32C922.562 706.32 920.215 705.66 918.308 704.34C916.548 702.873 915.228 701.407 914.348 699.94C912.882 697.153 907.162 683.88 897.188 660.12L890.368 660.56H862.648V685.42C862.648 688.793 862.502 691.36 862.208 693.12C862.062 694.733 861.402 696.64 860.228 698.84C858.175 702.8 852.455 704.78 843.068 704.78C832.802 704.78 826.788 702.067 825.028 696.64C824.148 694.147 823.708 690.333 823.708 685.2V563.1C823.708 559.727 823.782 557.233 823.928 555.62C824.222 553.86 824.955 551.88 826.128 549.68C828.182 545.72 833.902 543.74 843.288 543.74H890.808C903.715 543.74 916.255 548.433 928.428 557.82C934.295 562.367 939.135 568.527 942.948 576.3C946.762 584.073 948.668 592.727 948.668 602.26C948.668 618.833 943.168 632.473 932.168 643.18C935.395 650.953 940.382 662.467 947.128 677.72ZM862.648 621.62H890.808C895.062 621.62 899.315 620.007 903.568 616.78C907.822 613.553 909.948 608.713 909.948 602.26C909.948 595.807 907.822 590.967 903.568 587.74C899.315 584.367 894.915 582.68 890.368 582.68H862.648V621.62ZM1036.03 541.76C1057.74 541.76 1076.58 549.607 1092.57 565.3C1108.56 580.993 1116.55 600.5 1116.55 623.82C1116.55 646.993 1108.92 666.793 1093.67 683.22C1078.42 699.5 1059.64 707.64 1037.35 707.64C1015.06 707.64 996.062 699.573 980.369 683.44C964.822 667.307 957.049 648.093 957.049 625.8C957.049 613.627 959.249 602.26 963.649 591.7C968.049 580.993 973.915 572.047 981.249 564.86C988.582 557.673 997.015 552.027 1006.55 547.92C1016.08 543.813 1025.91 541.76 1036.03 541.76ZM995.989 624.7C995.989 637.753 1000.17 648.387 1008.53 656.6C1017.04 664.667 1026.5 668.7 1036.91 668.7C1047.32 668.7 1056.71 664.74 1065.07 656.82C1073.43 648.9 1077.61 638.267 1077.61 624.92C1077.61 611.573 1073.36 600.867 1064.85 592.8C1056.49 584.733 1047.1 580.7 1036.69 580.7C1026.28 580.7 1016.89 584.807 1008.53 593.02C1000.17 601.087 995.989 611.647 995.989 624.7ZM1254.35 677.72C1256.55 683 1257.65 686.813 1257.65 689.16C1257.65 694.733 1253.11 699.427 1244.01 703.24C1239.32 705.293 1235.51 706.32 1232.57 706.32C1229.79 706.32 1227.44 705.66 1225.53 704.34C1223.77 702.873 1222.45 701.407 1221.57 699.94C1220.11 697.153 1214.39 683.88 1204.41 660.12L1197.59 660.56H1169.87V685.42C1169.87 688.793 1169.73 691.36 1169.43 693.12C1169.29 694.733 1168.63 696.64 1167.45 698.84C1165.4 702.8 1159.68 704.78 1150.29 704.78C1140.03 704.78 1134.01 702.067 1132.25 696.64C1131.37 694.147 1130.93 690.333 1130.93 685.2V563.1C1130.93 559.727 1131.01 557.233 1131.15 555.62C1131.45 553.86 1132.18 551.88 1133.35 549.68C1135.41 545.72 1141.13 543.74 1150.51 543.74H1198.03C1210.94 543.74 1223.48 548.433 1235.65 557.82C1241.52 562.367 1246.36 568.527 1250.17 576.3C1253.99 584.073 1255.89 592.727 1255.89 602.26C1255.89 618.833 1250.39 632.473 1239.39 643.18C1242.62 650.953 1247.61 662.467 1254.35 677.72ZM1169.87 621.62H1198.03C1202.29 621.62 1206.54 620.007 1210.79 616.78C1215.05 613.553 1217.17 608.713 1217.17 602.26C1217.17 595.807 1215.05 590.967 1210.79 587.74C1206.54 584.367 1202.14 582.68 1197.59 582.68H1169.87V621.62ZM166.884 815.02C168.057 812.967 170.037 811.573 172.824 810.84C175.757 809.96 179.497 809.52 184.044 809.52C188.737 809.52 192.477 810.033 195.264 811.06C198.05 811.94 200.03 813.48 201.204 815.68C202.377 817.733 203.037 819.64 203.184 821.4C203.477 823.16 203.624 825.727 203.624 829.1V951.42C203.624 957.14 202.89 961.393 201.424 964.18C200.104 966.82 197.977 968.58 195.044 969.46C192.257 970.34 188.737 970.78 184.484 970.78C180.23 970.78 176.857 970.413 174.364 969.68C171.87 968.947 169.964 968.067 168.644 967.04C167.324 966.013 166.37 964.547 165.784 962.64C164.904 960.147 164.464 956.333 164.464 951.2V924.36H104.844C94.5769 924.36 88.4903 921.573 86.5836 916C85.8503 913.653 85.4836 910.5 85.4836 906.54C85.4836 902.58 85.7036 899.647 86.1436 897.74L104.404 824.04C105.284 820.667 106.017 818.1 106.604 816.34C107.337 814.58 108.657 812.893 110.564 811.28C112.617 809.667 115.184 808.86 118.264 808.86C121.344 808.86 124.717 809.373 128.384 810.4C138.65 813.187 143.784 817.88 143.784 824.48C143.784 826.827 143.27 829.907 142.244 833.72C142.097 834.013 142.024 834.233 142.024 834.38L128.604 888.06H164.464V828C164.464 824.627 164.537 822.133 164.684 820.52C164.977 818.907 165.71 817.073 166.884 815.02ZM234.599 828.44C238.852 822.427 244.792 817.44 252.419 813.48C260.192 809.373 269.139 807.32 279.259 807.32C289.379 807.32 298.179 809.3 305.659 813.26C313.286 817.22 319.226 822.133 323.479 828C327.879 833.867 331.399 840.76 334.039 848.68C338.439 861.88 340.639 875.887 340.639 890.7C340.639 917.247 334.919 938.293 323.479 953.84C319.226 959.707 313.286 964.547 305.659 968.36C298.179 972.173 289.452 974.08 279.479 974.08C269.506 974.08 260.632 972.173 252.859 968.36C245.232 964.4 239.219 959.56 234.819 953.84C230.566 948.12 227.046 941.3 224.259 933.38C220.006 920.767 217.879 906.467 217.879 890.48C217.879 875.813 219.566 863.273 222.939 852.86C226.459 842.447 230.346 834.307 234.599 828.44ZM279.039 934.92C294.146 934.92 301.699 920.547 301.699 891.8V890.48C301.699 861 294.219 846.26 279.259 846.26C264.299 846.26 256.819 861.073 256.819 890.7C256.819 920.18 264.226 934.92 279.039 934.92ZM412.667 807.32C430.707 807.32 444.933 812.453 455.347 822.72C465.76 832.987 470.967 844.573 470.967 857.48C470.967 870.24 465.247 879.48 453.807 885.2V886.74C455.273 887.473 457.4 889.087 460.187 891.58C463.12 893.927 465.467 896.273 467.227 898.62C472.067 904.78 474.487 911.82 474.487 919.74C474.487 935.433 468.62 948.413 456.887 958.68C445.153 968.8 430.413 973.86 412.667 973.86C395.067 973.86 380.4 968.727 368.667 958.46C364.267 954.5 360.38 949.293 357.007 942.84C355.833 940.493 355.027 938.587 354.587 937.12L354.147 934.92C352.533 930.08 351.727 926.12 351.727 923.04C351.727 914.533 358.913 910.28 373.287 910.28C379.153 910.28 383.04 911.013 384.947 912.48C387.44 914.387 389.64 918.2 391.547 923.92C393.013 928.613 397.047 932.133 403.647 934.48C406.433 935.36 409.513 935.8 412.887 935.8C420.66 935.8 426.38 934.26 430.047 931.18C433.713 927.953 435.547 924.36 435.547 920.4C435.547 916.44 433.713 912.993 430.047 910.06C426.527 906.98 422.273 905.44 417.287 905.44C412.447 905.44 409.147 905.293 407.387 905C405.627 904.707 403.72 903.973 401.667 902.8C397.707 900.893 395.727 895.247 395.727 885.86C395.727 875.593 398.44 869.507 403.867 867.6C406.36 866.867 410.173 866.5 415.307 866.5C426.453 866.5 432.027 863.64 432.027 857.92C432.027 854.84 430.56 851.907 427.627 849.12C424.693 846.333 420.587 844.94 415.307 844.94C410.173 844.94 406.067 845.82 402.987 847.58C399.907 849.34 398 851.1 397.267 852.86L395.947 855.5C392.573 862.833 387.733 866.5 381.427 866.5C377.76 866.5 373.727 865.18 369.327 862.54C361.993 858.287 358.327 853.373 358.327 847.8C358.327 845.453 360.013 840.467 363.387 832.84C363.973 831.52 365.587 829.247 368.227 826.02C370.867 822.647 373.873 819.713 377.247 817.22C380.767 814.727 385.607 812.453 391.767 810.4C398.073 808.347 405.04 807.32 412.667 807.32ZM583.459 932.06H651.219C654.592 932.06 657.085 932.207 658.699 932.5C660.459 932.647 662.439 933.307 664.639 934.48C668.599 936.533 670.579 942.253 670.579 951.64C670.579 961.907 667.865 967.92 662.439 969.68C659.945 970.56 656.132 971 650.999 971H563.879C553.612 971 547.599 968.213 545.839 962.64C544.959 960.293 544.519 956.553 544.519 951.42V829.1C544.519 821.62 545.912 816.56 548.699 813.92C551.485 811.133 556.765 809.74 564.539 809.74H651.219C654.592 809.74 657.085 809.887 658.699 810.18C660.459 810.327 662.439 810.987 664.639 812.16C668.599 814.213 670.579 819.933 670.579 829.32C670.579 839.587 667.865 845.6 662.439 847.36C659.945 848.24 656.132 848.68 650.999 848.68H583.459V870.9H627.019C630.392 870.9 632.885 871.047 634.499 871.34C636.259 871.487 638.239 872.147 640.439 873.32C644.399 875.373 646.379 881.093 646.379 890.48C646.379 900.747 643.592 906.76 638.019 908.52C635.525 909.4 631.712 909.84 626.579 909.84H583.459V932.06ZM808.232 943.72C810.432 949 811.532 952.813 811.532 955.16C811.532 960.733 806.985 965.427 797.892 969.24C793.198 971.293 789.385 972.32 786.452 972.32C783.665 972.32 781.318 971.66 779.412 970.34C777.652 968.873 776.332 967.407 775.452 965.94C773.985 963.153 768.265 949.88 758.292 926.12L751.472 926.56H723.752V951.42C723.752 954.793 723.605 957.36 723.312 959.12C723.165 960.733 722.505 962.64 721.332 964.84C719.278 968.8 713.558 970.78 704.172 970.78C693.905 970.78 687.892 968.067 686.132 962.64C685.252 960.147 684.812 956.333 684.812 951.2V829.1C684.812 825.727 684.885 823.233 685.032 821.62C685.325 819.86 686.058 817.88 687.232 815.68C689.285 811.72 695.005 809.74 704.392 809.74H751.912C764.818 809.74 777.358 814.433 789.532 823.82C795.398 828.367 800.238 834.527 804.052 842.3C807.865 850.073 809.772 858.727 809.772 868.26C809.772 884.833 804.272 898.473 793.272 909.18C796.498 916.953 801.485 928.467 808.232 943.72ZM723.752 887.62H751.912C756.165 887.62 760.418 886.007 764.672 882.78C768.925 879.553 771.052 874.713 771.052 868.26C771.052 861.807 768.925 856.967 764.672 853.74C760.418 850.367 756.018 848.68 751.472 848.68H723.752V887.62ZM947.021 943.72C949.221 949 950.321 952.813 950.321 955.16C950.321 960.733 945.774 965.427 936.681 969.24C931.987 971.293 928.174 972.32 925.241 972.32C922.454 972.32 920.107 971.66 918.201 970.34C916.441 968.873 915.121 967.407 914.241 965.94C912.774 963.153 907.054 949.88 897.081 926.12L890.261 926.56H862.541V951.42C862.541 954.793 862.394 957.36 862.101 959.12C861.954 960.733 861.294 962.64 860.121 964.84C858.067 968.8 852.347 970.78 842.961 970.78C832.694 970.78 826.681 968.067 824.921 962.64C824.041 960.147 823.601 956.333 823.601 951.2V829.1C823.601 825.727 823.674 823.233 823.821 821.62C824.114 819.86 824.847 817.88 826.021 815.68C828.074 811.72 833.794 809.74 843.181 809.74H890.701C903.607 809.74 916.147 814.433 928.321 823.82C934.187 828.367 939.027 834.527 942.841 842.3C946.654 850.073 948.561 858.727 948.561 868.26C948.561 884.833 943.061 898.473 932.061 909.18C935.287 916.953 940.274 928.467 947.021 943.72ZM862.541 887.62H890.701C894.954 887.62 899.207 886.007 903.461 882.78C907.714 879.553 909.841 874.713 909.841 868.26C909.841 861.807 907.714 856.967 903.461 853.74C899.207 850.367 894.807 848.68 890.261 848.68H862.541V887.62ZM1035.92 807.76C1057.63 807.76 1076.47 815.607 1092.46 831.3C1108.45 846.993 1116.44 866.5 1116.44 889.82C1116.44 912.993 1108.81 932.793 1093.56 949.22C1078.31 965.5 1059.53 973.64 1037.24 973.64C1014.95 973.64 995.955 965.573 980.261 949.44C964.715 933.307 956.941 914.093 956.941 891.8C956.941 879.627 959.141 868.26 963.541 857.7C967.941 846.993 973.808 838.047 981.141 830.86C988.475 823.673 996.908 818.027 1006.44 813.92C1015.97 809.813 1025.8 807.76 1035.92 807.76ZM995.881 890.7C995.881 903.753 1000.06 914.387 1008.42 922.6C1016.93 930.667 1026.39 934.7 1036.8 934.7C1047.21 934.7 1056.6 930.74 1064.96 922.82C1073.32 914.9 1077.5 904.267 1077.5 890.92C1077.5 877.573 1073.25 866.867 1064.74 858.8C1056.38 850.733 1046.99 846.7 1036.58 846.7C1026.17 846.7 1016.78 850.807 1008.42 859.02C1000.06 867.087 995.881 877.647 995.881 890.7ZM1254.25 943.72C1256.45 949 1257.55 952.813 1257.55 955.16C1257.55 960.733 1253 965.427 1243.91 969.24C1239.21 971.293 1235.4 972.32 1232.47 972.32C1229.68 972.32 1227.33 971.66 1225.43 970.34C1223.67 968.873 1222.35 967.407 1221.47 965.94C1220 963.153 1214.28 949.88 1204.31 926.12L1197.49 926.56H1169.77V951.42C1169.77 954.793 1169.62 957.36 1169.33 959.12C1169.18 960.733 1168.52 962.64 1167.35 964.84C1165.29 968.8 1159.57 970.78 1150.19 970.78C1139.92 970.78 1133.91 968.067 1132.15 962.64C1131.27 960.147 1130.83 956.333 1130.83 951.2V829.1C1130.83 825.727 1130.9 823.233 1131.05 821.62C1131.34 819.86 1132.07 817.88 1133.25 815.68C1135.3 811.72 1141.02 809.74 1150.41 809.74H1197.93C1210.83 809.74 1223.37 814.433 1235.55 823.82C1241.41 828.367 1246.25 834.527 1250.07 842.3C1253.88 850.073 1255.79 858.727 1255.79 868.26C1255.79 884.833 1250.29 898.473 1239.29 909.18C1242.51 916.953 1247.5 928.467 1254.25 943.72ZM1169.77 887.62H1197.93C1202.18 887.62 1206.43 886.007 1210.69 882.78C1214.94 879.553 1217.07 874.713 1217.07 868.26C1217.07 861.807 1214.94 856.967 1210.69 853.74C1206.43 850.367 1202.03 848.68 1197.49 848.68H1169.77V887.62ZM168.71 1081.02C169.883 1078.97 171.863 1077.57 174.65 1076.84C177.583 1075.96 181.323 1075.52 185.87 1075.52C190.563 1075.52 194.303 1076.03 197.09 1077.06C199.876 1077.94 201.856 1079.48 203.03 1081.68C204.203 1083.73 204.863 1085.64 205.01 1087.4C205.303 1089.16 205.45 1091.73 205.45 1095.1V1217.42C205.45 1223.14 204.716 1227.39 203.25 1230.18C201.93 1232.82 199.803 1234.58 196.87 1235.46C194.083 1236.34 190.563 1236.78 186.31 1236.78C182.056 1236.78 178.683 1236.41 176.19 1235.68C173.696 1234.95 171.79 1234.07 170.47 1233.04C169.15 1232.01 168.196 1230.55 167.61 1228.64C166.73 1226.15 166.29 1222.33 166.29 1217.2V1190.36H106.67C96.4031 1190.36 90.3164 1187.57 88.4098 1182C87.6764 1179.65 87.3098 1176.5 87.3098 1172.54C87.3098 1168.58 87.5298 1165.65 87.9698 1163.74L106.23 1090.04C107.11 1086.67 107.843 1084.1 108.43 1082.34C109.163 1080.58 110.483 1078.89 112.39 1077.28C114.443 1075.67 117.01 1074.86 120.09 1074.86C123.17 1074.86 126.543 1075.37 130.21 1076.4C140.476 1079.19 145.61 1083.88 145.61 1090.48C145.61 1092.83 145.096 1095.91 144.07 1099.72C143.923 1100.01 143.85 1100.23 143.85 1100.38L130.43 1154.06H166.29V1094C166.29 1090.63 166.363 1088.13 166.51 1086.52C166.803 1084.91 167.536 1083.07 168.71 1081.02ZM236.425 1094.44C240.678 1088.43 246.618 1083.44 254.245 1079.48C262.018 1075.37 270.965 1073.32 281.085 1073.32C291.205 1073.32 300.005 1075.3 307.485 1079.26C315.112 1083.22 321.052 1088.13 325.305 1094C329.705 1099.87 333.225 1106.76 335.865 1114.68C340.265 1127.88 342.465 1141.89 342.465 1156.7C342.465 1183.25 336.745 1204.29 325.305 1219.84C321.052 1225.71 315.112 1230.55 307.485 1234.36C300.005 1238.17 291.278 1240.08 281.305 1240.08C271.332 1240.08 262.458 1238.17 254.685 1234.36C247.058 1230.4 241.045 1225.56 236.645 1219.84C232.392 1214.12 228.872 1207.3 226.085 1199.38C221.832 1186.77 219.705 1172.47 219.705 1156.48C219.705 1141.81 221.392 1129.27 224.765 1118.86C228.285 1108.45 232.172 1100.31 236.425 1094.44ZM280.865 1200.92C295.972 1200.92 303.525 1186.55 303.525 1157.8V1156.48C303.525 1127 296.045 1112.26 281.085 1112.26C266.125 1112.26 258.645 1127.07 258.645 1156.7C258.645 1186.18 266.052 1200.92 280.865 1200.92ZM432.753 1081.02C433.926 1078.97 435.906 1077.57 438.693 1076.84C441.626 1075.96 445.366 1075.52 449.913 1075.52C454.606 1075.52 458.346 1076.03 461.133 1077.06C463.919 1077.94 465.899 1079.48 467.073 1081.68C468.246 1083.73 468.906 1085.64 469.053 1087.4C469.346 1089.16 469.493 1091.73 469.493 1095.1V1217.42C469.493 1223.14 468.759 1227.39 467.293 1230.18C465.973 1232.82 463.846 1234.58 460.913 1235.46C458.126 1236.34 454.606 1236.78 450.353 1236.78C446.099 1236.78 442.726 1236.41 440.233 1235.68C437.739 1234.95 435.833 1234.07 434.513 1233.04C433.193 1232.01 432.239 1230.55 431.653 1228.64C430.773 1226.15 430.333 1222.33 430.333 1217.2V1190.36H370.713C360.446 1190.36 354.359 1187.57 352.453 1182C351.719 1179.65 351.353 1176.5 351.353 1172.54C351.353 1168.58 351.573 1165.65 352.013 1163.74L370.273 1090.04C371.153 1086.67 371.886 1084.1 372.473 1082.34C373.206 1080.58 374.526 1078.89 376.433 1077.28C378.486 1075.67 381.053 1074.86 384.133 1074.86C387.213 1074.86 390.586 1075.37 394.253 1076.4C404.519 1079.19 409.653 1083.88 409.653 1090.48C409.653 1092.83 409.139 1095.91 408.113 1099.72C407.966 1100.01 407.893 1100.23 407.893 1100.38L394.473 1154.06H430.333V1094C430.333 1090.63 430.406 1088.13 430.553 1086.52C430.846 1084.91 431.579 1083.07 432.753 1081.02ZM581.633 1198.06H649.393C652.766 1198.06 655.259 1198.21 656.873 1198.5C658.633 1198.65 660.613 1199.31 662.813 1200.48C666.773 1202.53 668.753 1208.25 668.753 1217.64C668.753 1227.91 666.039 1233.92 660.613 1235.68C658.119 1236.56 654.306 1237 649.173 1237H562.053C551.786 1237 545.773 1234.21 544.013 1228.64C543.133 1226.29 542.693 1222.55 542.693 1217.42V1095.1C542.693 1087.62 544.086 1082.56 546.873 1079.92C549.659 1077.13 554.939 1075.74 562.713 1075.74H649.393C652.766 1075.74 655.259 1075.89 656.873 1076.18C658.633 1076.33 660.613 1076.99 662.813 1078.16C666.773 1080.21 668.753 1085.93 668.753 1095.32C668.753 1105.59 666.039 1111.6 660.613 1113.36C658.119 1114.24 654.306 1114.68 649.173 1114.68H581.633V1136.9H625.193C628.566 1136.9 631.059 1137.05 632.673 1137.34C634.433 1137.49 636.413 1138.15 638.613 1139.32C642.573 1141.37 644.553 1147.09 644.553 1156.48C644.553 1166.75 641.766 1172.76 636.193 1174.52C633.699 1175.4 629.886 1175.84 624.753 1175.84H581.633V1198.06ZM806.406 1209.72C808.606 1215 809.706 1218.81 809.706 1221.16C809.706 1226.73 805.159 1231.43 796.066 1235.24C791.372 1237.29 787.559 1238.32 784.626 1238.32C781.839 1238.32 779.492 1237.66 777.586 1236.34C775.826 1234.87 774.506 1233.41 773.626 1231.94C772.159 1229.15 766.439 1215.88 756.466 1192.12L749.646 1192.56H721.926V1217.42C721.926 1220.79 721.779 1223.36 721.486 1225.12C721.339 1226.73 720.679 1228.64 719.506 1230.84C717.452 1234.8 711.732 1236.78 702.346 1236.78C692.079 1236.78 686.066 1234.07 684.306 1228.64C683.426 1226.15 682.986 1222.33 682.986 1217.2V1095.1C682.986 1091.73 683.059 1089.23 683.206 1087.62C683.499 1085.86 684.232 1083.88 685.406 1081.68C687.459 1077.72 693.179 1075.74 702.566 1075.74H750.086C762.992 1075.74 775.532 1080.43 787.706 1089.82C793.572 1094.37 798.412 1100.53 802.226 1108.3C806.039 1116.07 807.946 1124.73 807.946 1134.26C807.946 1150.83 802.446 1164.47 791.446 1175.18C794.672 1182.95 799.659 1194.47 806.406 1209.72ZM721.926 1153.62H750.086C754.339 1153.62 758.592 1152.01 762.846 1148.78C767.099 1145.55 769.226 1140.71 769.226 1134.26C769.226 1127.81 767.099 1122.97 762.846 1119.74C758.592 1116.37 754.192 1114.68 749.646 1114.68H721.926V1153.62ZM945.195 1209.72C947.395 1215 948.495 1218.81 948.495 1221.16C948.495 1226.73 943.948 1231.43 934.855 1235.24C930.161 1237.29 926.348 1238.32 923.415 1238.32C920.628 1238.32 918.281 1237.66 916.375 1236.34C914.615 1234.87 913.295 1233.41 912.415 1231.94C910.948 1229.15 905.228 1215.88 895.255 1192.12L888.435 1192.56H860.715V1217.42C860.715 1220.79 860.568 1223.36 860.275 1225.12C860.128 1226.73 859.468 1228.64 858.295 1230.84C856.241 1234.8 850.521 1236.78 841.135 1236.78C830.868 1236.78 824.855 1234.07 823.095 1228.64C822.215 1226.15 821.775 1222.33 821.775 1217.2V1095.1C821.775 1091.73 821.848 1089.23 821.995 1087.62C822.288 1085.86 823.021 1083.88 824.195 1081.68C826.248 1077.72 831.968 1075.74 841.355 1075.74H888.875C901.781 1075.74 914.321 1080.43 926.495 1089.82C932.361 1094.37 937.201 1100.53 941.015 1108.3C944.828 1116.07 946.735 1124.73 946.735 1134.26C946.735 1150.83 941.235 1164.47 930.235 1175.18C933.461 1182.95 938.448 1194.47 945.195 1209.72ZM860.715 1153.62H888.875C893.128 1153.62 897.381 1152.01 901.635 1148.78C905.888 1145.55 908.015 1140.71 908.015 1134.26C908.015 1127.81 905.888 1122.97 901.635 1119.74C897.381 1116.37 892.981 1114.68 888.435 1114.68H860.715V1153.62ZM1034.1 1073.76C1055.8 1073.76 1074.65 1081.61 1090.64 1097.3C1106.62 1112.99 1114.62 1132.5 1114.62 1155.82C1114.62 1178.99 1106.99 1198.79 1091.74 1215.22C1076.48 1231.5 1057.71 1239.64 1035.42 1239.64C1013.12 1239.64 994.129 1231.57 978.435 1215.44C962.889 1199.31 955.115 1180.09 955.115 1157.8C955.115 1145.63 957.315 1134.26 961.715 1123.7C966.115 1112.99 971.982 1104.05 979.315 1096.86C986.649 1089.67 995.082 1084.03 1004.62 1079.92C1014.15 1075.81 1023.98 1073.76 1034.1 1073.76ZM994.055 1156.7C994.055 1169.75 998.235 1180.39 1006.6 1188.6C1015.1 1196.67 1024.56 1200.7 1034.98 1200.7C1045.39 1200.7 1054.78 1196.74 1063.14 1188.82C1071.5 1180.9 1075.68 1170.27 1075.68 1156.92C1075.68 1143.57 1071.42 1132.87 1062.92 1124.8C1054.56 1116.73 1045.17 1112.7 1034.76 1112.7C1024.34 1112.7 1014.96 1116.81 1006.6 1125.02C998.235 1133.09 994.055 1143.65 994.055 1156.7ZM1252.42 1209.72C1254.62 1215 1255.72 1218.81 1255.72 1221.16C1255.72 1226.73 1251.17 1231.43 1242.08 1235.24C1237.39 1237.29 1233.57 1238.32 1230.64 1238.32C1227.85 1238.32 1225.51 1237.66 1223.6 1236.34C1221.84 1234.87 1220.52 1233.41 1219.64 1231.94C1218.17 1229.15 1212.45 1215.88 1202.48 1192.12L1195.66 1192.56H1167.94V1217.42C1167.94 1220.79 1167.79 1223.36 1167.5 1225.12C1167.35 1226.73 1166.69 1228.64 1165.52 1230.84C1163.47 1234.8 1157.75 1236.78 1148.36 1236.78C1138.09 1236.78 1132.08 1234.07 1130.32 1228.64C1129.44 1226.15 1129 1222.33 1129 1217.2V1095.1C1129 1091.73 1129.07 1089.23 1129.22 1087.62C1129.51 1085.86 1130.25 1083.88 1131.42 1081.68C1133.47 1077.72 1139.19 1075.74 1148.58 1075.74H1196.1C1209.01 1075.74 1221.55 1080.43 1233.72 1089.82C1239.59 1094.37 1244.43 1100.53 1248.24 1108.3C1252.05 1116.07 1253.96 1124.73 1253.96 1134.26C1253.96 1150.83 1248.46 1164.47 1237.46 1175.18C1240.69 1182.95 1245.67 1194.47 1252.42 1209.72ZM1167.94 1153.62H1196.1C1200.35 1153.62 1204.61 1152.01 1208.86 1148.78C1213.11 1145.55 1215.24 1140.71 1215.24 1134.26C1215.24 1127.81 1213.11 1122.97 1208.86 1119.74C1204.61 1116.37 1200.21 1114.68 1195.66 1114.68H1167.94V1153.62ZM175.477 1347.02C176.651 1344.97 178.631 1343.57 181.417 1342.84C184.351 1341.96 188.091 1341.52 192.637 1341.52C197.331 1341.52 201.071 1342.03 203.857 1343.06C206.644 1343.94 208.624 1345.48 209.797 1347.68C210.971 1349.73 211.631 1351.64 211.777 1353.4C212.071 1355.16 212.217 1357.73 212.217 1361.1V1483.42C212.217 1489.14 211.484 1493.39 210.017 1496.18C208.697 1498.82 206.571 1500.58 203.637 1501.46C200.851 1502.34 197.331 1502.78 193.077 1502.78C188.824 1502.78 185.451 1502.41 182.957 1501.68C180.464 1500.95 178.557 1500.07 177.237 1499.04C175.917 1498.01 174.964 1496.55 174.377 1494.64C173.497 1492.15 173.057 1488.33 173.057 1483.2V1456.36H113.437C103.171 1456.36 97.084 1453.57 95.1773 1448C94.444 1445.65 94.0773 1442.5 94.0773 1438.54C94.0773 1434.58 94.2973 1431.65 94.7373 1429.74L112.997 1356.04C113.877 1352.67 114.611 1350.1 115.197 1348.34C115.931 1346.58 117.251 1344.89 119.157 1343.28C121.211 1341.67 123.777 1340.86 126.857 1340.86C129.937 1340.86 133.311 1341.37 136.977 1342.4C147.244 1345.19 152.377 1349.88 152.377 1356.48C152.377 1358.83 151.864 1361.91 150.837 1365.72C150.691 1366.01 150.617 1366.23 150.617 1366.38L137.197 1420.06H173.057V1360C173.057 1356.63 173.131 1354.13 173.277 1352.52C173.571 1350.91 174.304 1349.07 175.477 1347.02ZM243.193 1360.44C247.446 1354.43 253.386 1349.44 261.013 1345.48C268.786 1341.37 277.733 1339.32 287.853 1339.32C297.973 1339.32 306.773 1341.3 314.253 1345.26C321.879 1349.22 327.819 1354.13 332.073 1360C336.473 1365.87 339.993 1372.76 342.633 1380.68C347.033 1393.88 349.233 1407.89 349.233 1422.7C349.233 1449.25 343.513 1470.29 332.073 1485.84C327.819 1491.71 321.879 1496.55 314.253 1500.36C306.773 1504.17 298.046 1506.08 288.073 1506.08C278.099 1506.08 269.226 1504.17 261.453 1500.36C253.826 1496.4 247.813 1491.56 243.413 1485.84C239.159 1480.12 235.639 1473.3 232.853 1465.38C228.599 1452.77 226.473 1438.47 226.473 1422.48C226.473 1407.81 228.159 1395.27 231.533 1384.86C235.053 1374.45 238.939 1366.31 243.193 1360.44ZM287.633 1466.92C302.739 1466.92 310.293 1452.55 310.293 1423.8V1422.48C310.293 1393 302.813 1378.26 287.853 1378.26C272.893 1378.26 265.413 1393.07 265.413 1422.7C265.413 1452.18 272.819 1466.92 287.633 1466.92ZM389.14 1341.3L422.58 1341.52H443.26C446.78 1341.52 449.347 1341.67 450.96 1341.96C452.574 1342.11 454.48 1342.77 456.68 1343.94C460.64 1345.99 462.62 1351.86 462.62 1361.54C462.62 1370.34 460.787 1375.69 457.12 1377.6C455.067 1378.77 453.234 1379.51 451.62 1379.8C450.154 1379.95 447.807 1380.02 444.58 1380.02H406.08C405.787 1381.78 405.054 1387.35 403.88 1396.74C405.494 1396.45 408.06 1396.3 411.58 1396.3C425.514 1396.3 438.054 1401.58 449.2 1412.14C460.347 1422.55 465.92 1435.39 465.92 1450.64C465.92 1465.75 460.64 1478.8 450.08 1489.8C439.52 1500.65 426.394 1506.08 410.7 1506.08C397.06 1506.08 384.74 1502.63 373.74 1495.74C371.247 1494.13 369.414 1492.73 368.24 1491.56L366.48 1490.02C360.907 1485.18 358.12 1480.78 358.12 1476.82C358.12 1472.86 360.834 1468.09 366.26 1462.52C370.66 1457.68 374.914 1455.26 379.02 1455.26C383.127 1455.26 388.04 1457.61 393.76 1462.3C396.4 1465.38 400.947 1466.92 407.4 1466.92C414 1466.92 418.84 1465.53 421.92 1462.74C425.147 1459.95 426.76 1456.14 426.76 1451.3C426.76 1446.31 425 1442.43 421.48 1439.64C418.107 1436.71 414.22 1435.24 409.82 1435.24C405.42 1435.24 401.9 1436.56 399.26 1439.2C395.3 1442.57 391.267 1444.26 387.16 1444.26C383.2 1444.26 378.58 1442.87 373.3 1440.08C368.167 1437.29 364.794 1435.09 363.18 1433.48C361.567 1431.72 360.76 1429.89 360.76 1427.98C360.76 1426.07 362.227 1414.27 365.16 1392.56C368.094 1370.85 369.634 1359.56 369.78 1358.68C369.927 1357.8 370.44 1356.26 371.32 1354.06C372.2 1351.86 373.227 1349.88 374.4 1348.12C375.72 1346.36 377.627 1344.82 380.12 1343.5C382.76 1342.03 385.767 1341.3 389.14 1341.3ZM574.865 1464.06H642.625C645.998 1464.06 648.492 1464.21 650.105 1464.5C651.865 1464.65 653.845 1465.31 656.045 1466.48C660.005 1468.53 661.985 1474.25 661.985 1483.64C661.985 1493.91 659.272 1499.92 653.845 1501.68C651.352 1502.56 647.538 1503 642.405 1503H555.285C545.018 1503 539.005 1500.21 537.245 1494.64C536.365 1492.29 535.925 1488.55 535.925 1483.42V1361.1C535.925 1353.62 537.318 1348.56 540.105 1345.92C542.892 1343.13 548.172 1341.74 555.945 1341.74H642.625C645.998 1341.74 648.492 1341.89 650.105 1342.18C651.865 1342.33 653.845 1342.99 656.045 1344.16C660.005 1346.21 661.985 1351.93 661.985 1361.32C661.985 1371.59 659.272 1377.6 653.845 1379.36C651.352 1380.24 647.538 1380.68 642.405 1380.68H574.865V1402.9H618.425C621.798 1402.9 624.292 1403.05 625.905 1403.34C627.665 1403.49 629.645 1404.15 631.845 1405.32C635.805 1407.37 637.785 1413.09 637.785 1422.48C637.785 1432.75 634.998 1438.76 629.425 1440.52C626.932 1441.4 623.118 1441.84 617.985 1441.84H574.865V1464.06ZM799.638 1475.72C801.838 1481 802.938 1484.81 802.938 1487.16C802.938 1492.73 798.391 1497.43 789.298 1501.24C784.605 1503.29 780.791 1504.32 777.858 1504.32C775.071 1504.32 772.725 1503.66 770.818 1502.34C769.058 1500.87 767.738 1499.41 766.858 1497.94C765.391 1495.15 759.671 1481.88 749.698 1458.12L742.878 1458.56H715.158V1483.42C715.158 1486.79 715.011 1489.36 714.718 1491.12C714.571 1492.73 713.911 1494.64 712.738 1496.84C710.685 1500.8 704.965 1502.78 695.578 1502.78C685.311 1502.78 679.298 1500.07 677.538 1494.64C676.658 1492.15 676.218 1488.33 676.218 1483.2V1361.1C676.218 1357.73 676.291 1355.23 676.438 1353.62C676.731 1351.86 677.465 1349.88 678.638 1347.68C680.691 1343.72 686.411 1341.74 695.798 1341.74H743.318C756.225 1341.74 768.765 1346.43 780.938 1355.82C786.805 1360.37 791.645 1366.53 795.458 1374.3C799.271 1382.07 801.178 1390.73 801.178 1400.26C801.178 1416.83 795.678 1430.47 784.678 1441.18C787.905 1448.95 792.891 1460.47 799.638 1475.72ZM715.158 1419.62H743.318C747.571 1419.62 751.825 1418.01 756.078 1414.78C760.331 1411.55 762.458 1406.71 762.458 1400.26C762.458 1393.81 760.331 1388.97 756.078 1385.74C751.825 1382.37 747.425 1380.68 742.878 1380.68H715.158V1419.62ZM938.427 1475.72C940.627 1481 941.727 1484.81 941.727 1487.16C941.727 1492.73 937.18 1497.43 928.087 1501.24C923.394 1503.29 919.58 1504.32 916.647 1504.32C913.86 1504.32 911.514 1503.66 909.607 1502.34C907.847 1500.87 906.527 1499.41 905.647 1497.94C904.18 1495.15 898.46 1481.88 888.487 1458.12L881.667 1458.56H853.947V1483.42C853.947 1486.79 853.8 1489.36 853.507 1491.12C853.36 1492.73 852.7 1494.64 851.527 1496.84C849.474 1500.8 843.754 1502.78 834.367 1502.78C824.1 1502.78 818.087 1500.07 816.327 1494.64C815.447 1492.15 815.007 1488.33 815.007 1483.2V1361.1C815.007 1357.73 815.08 1355.23 815.227 1353.62C815.52 1351.86 816.254 1349.88 817.427 1347.68C819.48 1343.72 825.2 1341.74 834.587 1341.74H882.107C895.014 1341.74 907.554 1346.43 919.727 1355.82C925.594 1360.37 930.434 1366.53 934.247 1374.3C938.06 1382.07 939.967 1390.73 939.967 1400.26C939.967 1416.83 934.467 1430.47 923.467 1441.18C926.694 1448.95 931.68 1460.47 938.427 1475.72ZM853.947 1419.62H882.107C886.36 1419.62 890.614 1418.01 894.867 1414.78C899.12 1411.55 901.247 1406.71 901.247 1400.26C901.247 1393.81 899.12 1388.97 894.867 1385.74C890.614 1382.37 886.214 1380.68 881.667 1380.68H853.947V1419.62ZM1027.33 1339.76C1049.03 1339.76 1067.88 1347.61 1083.87 1363.3C1099.85 1378.99 1107.85 1398.5 1107.85 1421.82C1107.85 1444.99 1100.22 1464.79 1084.97 1481.22C1069.71 1497.5 1050.94 1505.64 1028.65 1505.64C1006.35 1505.64 987.361 1497.57 971.668 1481.44C956.121 1465.31 948.348 1446.09 948.348 1423.8C948.348 1411.63 950.548 1400.26 954.948 1389.7C959.348 1378.99 965.214 1370.05 972.548 1362.86C979.881 1355.67 988.314 1350.03 997.848 1345.92C1007.38 1341.81 1017.21 1339.76 1027.33 1339.76ZM987.288 1422.7C987.288 1435.75 991.468 1446.39 999.828 1454.6C1008.33 1462.67 1017.79 1466.7 1028.21 1466.7C1038.62 1466.7 1048.01 1462.74 1056.37 1454.82C1064.73 1446.9 1068.91 1436.27 1068.91 1422.92C1068.91 1409.57 1064.65 1398.87 1056.15 1390.8C1047.79 1382.73 1038.4 1378.7 1027.99 1378.7C1017.57 1378.7 1008.19 1382.81 999.828 1391.02C991.468 1399.09 987.288 1409.65 987.288 1422.7ZM1245.65 1475.72C1247.85 1481 1248.95 1484.81 1248.95 1487.16C1248.95 1492.73 1244.41 1497.43 1235.31 1501.24C1230.62 1503.29 1226.81 1504.32 1223.87 1504.32C1221.09 1504.32 1218.74 1503.66 1216.83 1502.34C1215.07 1500.87 1213.75 1499.41 1212.87 1497.94C1211.41 1495.15 1205.69 1481.88 1195.71 1458.12L1188.89 1458.56H1161.17V1483.42C1161.17 1486.79 1161.03 1489.36 1160.73 1491.12C1160.59 1492.73 1159.93 1494.64 1158.75 1496.84C1156.7 1500.8 1150.98 1502.78 1141.59 1502.78C1131.33 1502.78 1125.31 1500.07 1123.55 1494.64C1122.67 1492.15 1122.23 1488.33 1122.23 1483.2V1361.1C1122.23 1357.73 1122.31 1355.23 1122.45 1353.62C1122.75 1351.86 1123.48 1349.88 1124.65 1347.68C1126.71 1343.72 1132.43 1341.74 1141.81 1341.74H1189.33C1202.24 1341.74 1214.78 1346.43 1226.95 1355.82C1232.82 1360.37 1237.66 1366.53 1241.47 1374.3C1245.29 1382.07 1247.19 1390.73 1247.19 1400.26C1247.19 1416.83 1241.69 1430.47 1230.69 1441.18C1233.92 1448.95 1238.91 1460.47 1245.65 1475.72ZM1161.17 1419.62H1189.33C1193.59 1419.62 1197.84 1418.01 1202.09 1414.78C1206.35 1411.55 1208.47 1406.71 1208.47 1400.26C1208.47 1393.81 1206.35 1388.97 1202.09 1385.74C1197.84 1382.37 1193.44 1380.68 1188.89 1380.68H1161.17V1419.62Z" fill="#EBFF00"/>
</svg>
